<?xml version="1.0" standalone="no"?>
<!DOCTYPE svg PUBLIC "-//W3C//DTD SVG 1.1//EN" "http://www.w3.org/Graphics/SVG/1.1/DTD/svg11.dtd">
<svg version="1.1" xmlns="http://www.w3.org/2000/svg" viewBox="0 0 940 715" width="940" height="715"><!-- svg-source:excalidraw --><metadata></metadata><defs><style class="style-fonts">
      @font-face { font-family: Excalifont; src: url(https://esm.sh/@atyrode/excalidraw@0.18.0-15/dist/prod/fonts/Excalifont/Excalifont-Regular-a88b72a24fb54c9f94e3b5fdaa7481c9.woff2); }</style></defs><rect x="0" y="0" width="940" height="715" fill="#ffffff"></rect><g stroke-linecap="round" transform="translate(930 410) rotate(0 0 0)"><path d="M0 0 C0 0, 0 0, 0 0 M0 0 C0 0, 0 0, 0 0 M0 0 C0.19 -0.41, -0.65 0.13, 0 0 M0 0 C0.24 0.53, 0.02 0.14, 0 0 M0 0 C0 0, 0 0, 0 0 M0 0 C0 0, 0 0, 0 0 M0 0 C-0.54 0.39, 0.05 -0.32, 0 0 M0 0 C0.18 -0.5, -0.4 -0.43, 0 0 M0 0 C0 0, 0 0, 0 0 M0 0 C0 0, 0 0, 0 0 M0 0 C-0.28 0.61, -0.33 -0.57, 0 0 M0 0 C0.19 0.47, -0.11 0.03, 0 0 M0 0 C0 0, 0 0, 0 0 M0 0 C0 0, 0 0, 0 0 M0 0 C0.6 -0.23, -0.46 0.28, 0 0 M0 0 C0.3 -0.76, -0.32 -0.16, 0 0" stroke="#1e1e1e" stroke-width="2" fill="none"></path></g><g stroke-linecap="round" transform="translate(150 10) rotate(0 200 20)"><path d="M10 0 C88.7 -1.19, 165.76 -1.15, 390 0 M10 0 C141.5 -1.07, 274.01 -0.33, 390 0 M390 0 C396.68 -0.82, 401.57 4.42, 400 10 M390 0 C398.48 -1.87, 401.88 5.17, 400 10 M400 10 C400.82 17.28, 400.85 19.35, 400 30 M400 10 C401 15.95, 399.63 22.77, 400 30 M400 30 C398.14 37.49, 397.65 40.92, 390 40 M400 30 C398.96 38.11, 397.7 42.25, 390 40 M390 40 C261.34 43.1, 134.44 41.19, 10 40 M390 40 C297.05 38.4, 204.87 37.68, 10 40 M10 40 C1.46 39.99, 0.95 36.01, 0 30 M10 40 C5.32 39.32, 0.31 34.73, 0 30 M0 30 C1.42 22.77, -0.2 14.21, 0 10 M0 30 C0.03 25.53, 0.53 20.28, 0 10 M0 10 C0.68 2.53, 2.9 0.66, 10 0 M0 10 C1.3 5.31, 2.32 1.12, 10 0" stroke="#1e1e1e" stroke-width="2" fill="none"></path></g><g transform="translate(170 10) rotate(0 191.119873046875 12.5)"><text x="0" y="17.619999999999997" font-family="Excalifont, Xiaolai, Segoe UI Emoji" font-size="20px" fill="#1e1e1e" text-anchor="start" style="white-space: pre;" direction="ltr" dominant-baseline="alphabetic">User uploads CT scans (Gradio web UI</text></g><g stroke-linecap="round" transform="translate(230 90) rotate(0 100 30)"><path d="M15 0 C79.45 -1.52, 142.82 -0.96, 185 0 M15 0 C66.19 0.1, 117.86 -0.24, 185 0 M185 0 C193.54 0.16, 200.53 3.64, 200 15 M185 0 C194.39 -0.35, 198.29 4.65, 200 15 M200 15 C199.53 25.1, 198.06 31.13, 200 45 M200 15 C201.05 21.44, 200.98 29.5, 200 45 M200 45 C201.16 54.92, 195.65 60.07, 185 60 M200 45 C199.44 57.11, 195.74 61.4, 185 60 M185 60 C121.13 59.76, 54.92 61.23, 15 60 M185 60 C140.55 58.12, 95.41 58.69, 15 60 M15 60 C3.51 59.95, 1.31 53.31, 0 45 M15 60 C5.09 61.86, 0.04 54.97, 0 45 M0 45 C-0.71 39.43, 1.14 31.13, 0 15 M0 45 C0.82 33.16, -0.09 20.81, 0 15 M0 15 C0.74 5.83, 4.49 1.29, 15 0 M0 15 C-0.98 4.03, 4.8 -1.11, 15 0" stroke="#1e1e1e" stroke-width="2" fill="none"></path></g><g transform="translate(250 110) rotate(0 84.37992858886719 12.5)"><text x="0" y="17.619999999999997" font-family="Excalifont, Xiaolai, Segoe UI Emoji" font-size="20px" fill="#1e1e1e" text-anchor="start" style="white-space: pre;" direction="ltr" dominant-baseline="alphabetic">FastAPI backend</text></g><g transform="translate(170 210) rotate(0 140.05990600585938 37.5)"><text x="0" y="17.619999999999997" font-family="Excalifont, Xiaolai, Segoe UI Emoji" font-size="20px" fill="#1e1e1e" text-anchor="start" style="white-space: pre;" direction="ltr" dominant-baseline="alphabetic">Preprocessing Pipeline </text><text x="0" y="42.62" font-family="Excalifont, Xiaolai, Segoe UI Emoji" font-size="20px" fill="#1e1e1e" text-anchor="start" style="white-space: pre;" direction="ltr" dominant-baseline="alphabetic">(Resize, Normalise, Segment, </text><text x="0" y="67.62" font-family="Excalifont, Xiaolai, Segoe UI Emoji" font-size="20px" fill="#1e1e1e" text-anchor="start" style="white-space: pre;" direction="ltr" dominant-baseline="alphabetic">CLAHE)</text></g><g transform="translate(210 310) rotate(0 83.949951171875 25)"><text x="0" y="17.619999999999997" font-family="Excalifont, Xiaolai, Segoe UI Emoji" font-size="20px" fill="#1e1e1e" text-anchor="start" style="white-space: pre;" direction="ltr" dominant-baseline="alphabetic">Trained ML model</text><text x="0" y="42.62" font-family="Excalifont, Xiaolai, Segoe UI Emoji" font-size="20px" fill="#1e1e1e" text-anchor="start" style="white-space: pre;" direction="ltr" dominant-baseline="alphabetic">( Xception CNN ) </text></g><g transform="translate(190 410) rotate(0 126.14989471435547 25)"><text x="0" y="17.619999999999997" font-family="Excalifont, Xiaolai, Segoe UI Emoji" font-size="20px" fill="#1e1e1e" text-anchor="start" style="white-space: pre;" direction="ltr" dominant-baseline="alphabetic">Prediction and Confidence</text><text x="0" y="42.62" font-family="Excalifont, Xiaolai, Segoe UI Emoji" font-size="20px" fill="#1e1e1e" text-anchor="start" style="white-space: pre;" direction="ltr" dominant-baseline="alphabetic">          Scores</text></g><g transform="translate(30 530) rotate(0 100.13993072509766 25)"><text x="0" y="17.619999999999997" font-family="Excalifont, Xiaolai, Segoe UI Emoji" font-size="20px" fill="#1e1e1e" text-anchor="start" style="white-space: pre;" direction="ltr" dominant-baseline="alphabetic">Explainability Module</text><text x="0" y="42.62" font-family="Excalifont, Xiaolai, Segoe UI Emoji" font-size="20px" fill="#1e1e1e" text-anchor="start" style="white-space: pre;" direction="ltr" dominant-baseline="alphabetic">( Grad-CAM ) </text></g><g transform="translate(210 630) rotate(0 95.55992126464844 37.5)"><text x="0" y="17.619999999999997" font-family="Excalifont, Xiaolai, Segoe UI Emoji" font-size="20px" fill="#1e1e1e" text-anchor="start" style="white-space: pre;" direction="ltr" dominant-baseline="alphabetic">Reults Visualisation</text><text x="0" y="42.62" font-family="Excalifont, Xiaolai, Segoe UI Emoji" font-size="20px" fill="#1e1e1e" text-anchor="start" style="white-space: pre;" direction="ltr" dominant-baseline="alphabetic">Gradio UI</text><text x="0" y="67.62" font-family="Excalifont, Xiaolai, Segoe UI Emoji" font-size="20px" fill="#1e1e1e" text-anchor="start" style="white-space: pre;" direction="ltr" dominant-baseline="alphabetic"></text></g><g stroke-linecap="round" transform="translate(150 210) rotate(0 160 40)"><path d="M20 0 C126.07 -3.05, 234.67 -3.09, 300 0 M20 0 C128.56 0.32, 236.93 1.1, 300 0 M300 0 C314.73 1.69, 318.05 6.28, 320 20 M300 0 C312.88 -2.15, 320.65 8.89, 320 20 M320 20 C320.78 28.8, 319.64 39.32, 320 60 M320 20 C320.96 34.23, 319.28 48.43, 320 60 M320 60 C319.16 73.61, 313.79 79.67, 300 80 M320 60 C319.55 73.39, 315.15 77.8, 300 80 M300 80 C213.75 82.33, 129.15 79.5, 20 80 M300 80 C199.9 81.51, 101.97 81.96, 20 80 M20 80 C8.08 79.55, -1.06 72.49, 0 60 M20 80 C7.83 82.18, -0.46 74.28, 0 60 M0 60 C-1.17 51.22, -2.11 38.52, 0 20 M0 60 C0.51 51.03, -0.33 42.38, 0 20 M0 20 C-0.34 8.08, 7.66 1.15, 20 0 M0 20 C-0.6 5.17, 7.43 2.25, 20 0" stroke="#1e1e1e" stroke-width="2" fill="none"></path></g><g stroke-linecap="round" transform="translate(190 610) rotate(0 120 40)"><path d="M20 0 C58.81 0.86, 102.73 -0.96, 220 0 M20 0 C78.5 -0.88, 137.78 -0.16, 220 0 M220 0 C233.55 -1.67, 241.83 6.06, 240 20 M220 0 C231.58 -1.48, 239.03 6.98, 240 20 M240 20 C239.98 34.49, 238.02 45.92, 240 60 M240 20 C241.15 31.75, 239.3 44.08, 240 60 M240 60 C241.15 74.87, 231.43 79.64, 220 80 M240 60 C242.15 74.29, 234.95 79.48, 220 80 M220 80 C172.35 80.55, 122.03 80.13, 20 80 M220 80 C143.14 78.48, 64.53 78.65, 20 80 M20 80 C5.91 80.52, 0.72 73.89, 0 60 M20 80 C5.57 82.01, -0.39 74.96, 0 60 M0 60 C-1.53 46.69, 1.73 32.29, 0 20 M0 60 C0.42 46.99, 0.61 32.91, 0 20 M0 20 C-0.79 7.89, 6.57 -0.25, 20 0 M0 20 C2.16 8.43, 8.58 1.43, 20 0" stroke="#1e1e1e" stroke-width="2" fill="none"></path></g><g stroke-linecap="round" transform="translate(10 530) rotate(0 120 30)"><path d="M15 0 C70.85 1.43, 128.59 0.9, 225 0 M15 0 C73.08 -1.42, 132.79 -1.14, 225 0 M225 0 C233.91 2, 239.97 3.31, 240 15 M225 0 C236.26 1.32, 241.76 2.81, 240 15 M240 15 C241.69 23, 239.22 31.06, 240 45 M240 15 C240.7 25.08, 241.16 36.82, 240 45 M240 45 C239.18 56.49, 233.24 59.07, 225 60 M240 45 C238.42 54.13, 235.59 60.83, 225 60 M225 60 C155.9 62.87, 88.27 62.63, 15 60 M225 60 C168.32 60.73, 110.31 60.23, 15 60 M15 60 C6.45 60.49, 1.54 55.87, 0 45 M15 60 C6.08 59.09, 1.41 54.89, 0 45 M0 45 C1.38 37.63, -1.85 26.87, 0 15 M0 45 C-0.03 34.66, 1.14 23.42, 0 15 M0 15 C-0.29 4.9, 3.02 -0.2, 15 0 M0 15 C1.34 3.27, 3.36 -1.56, 15 0" stroke="#1e1e1e" stroke-width="2" fill="none"></path></g><g stroke-linecap="round" transform="translate(170 390) rotate(0 160 40)"><path d="M20 0 C103.9 1.14, 183.44 2.01, 300 0 M20 0 C119.98 2.76, 220.55 2.58, 300 0 M300 0 C312.88 -1.06, 319.16 7.68, 320 20 M300 0 C315.51 -0.46, 320.95 5.67, 320 20 M320 20 C321.81 33.75, 319.39 49.63, 320 60 M320 20 C320.38 30.01, 320.98 40.81, 320 60 M320 60 C321.42 74.32, 314.48 79.48, 300 80 M320 60 C318.5 74.1, 315.58 80.28, 300 80 M300 80 C203.91 82.74, 107.74 82.28, 20 80 M300 80 C226.97 80.61, 154.73 80.53, 20 80 M20 80 C7.91 78.43, -0.9 74.41, 0 60 M20 80 C5.32 81.46, -0.46 73.95, 0 60 M0 60 C0.04 42.15, -0.06 29.42, 0 20 M0 60 C0.65 51.57, 0.85 41.06, 0 20 M0 20 C0.18 6.72, 5.88 0.9, 20 0 M0 20 C0.4 7.83, 7.18 0.33, 20 0" stroke="#1e1e1e" stroke-width="2" fill="none"></path></g><g stroke-linecap="round" transform="translate(170 310) rotate(0 140 30)"><path d="M15 0 C86.43 2.17, 154.33 2.1, 265 0 M15 0 C67.74 1.62, 121.39 1.63, 265 0 M265 0 C274.04 1.75, 279.66 6.42, 280 15 M265 0 C276.14 1.32, 279.4 3.5, 280 15 M280 15 C281.18 24.13, 281.75 35.49, 280 45 M280 15 C279.74 26.93, 280.08 37.5, 280 45 M280 45 C281.88 56.53, 276.66 61.24, 265 60 M280 45 C278.19 53.97, 276.23 58.66, 265 60 M265 60 C175.7 59.96, 83 60.46, 15 60 M265 60 C214.11 60.61, 163.9 61.49, 15 60 M15 60 C6.13 61.12, -1.9 55.18, 0 45 M15 60 C5.06 59.1, 1.04 55.4, 0 45 M0 45 C-1 35.69, 0.35 25.89, 0 15 M0 45 C1.1 34.52, 0.84 22.9, 0 15 M0 15 C1.11 3.6, 4.28 -0.52, 15 0 M0 15 C-1.88 5.81, 4.81 1.43, 15 0" stroke="#1e1e1e" stroke-width="2" fill="none"></path></g><g stroke-linecap="round"><g transform="translate(330 50) rotate(0 0 20)"><path d="M0.21 0.4 C0.14 7.03, -0.11 33.74, -0.21 40.31 M-0.34 0.14 C-0.52 6.83, -0.93 32.8, -0.75 39.5" stroke="#1e1e1e" stroke-width="2" fill="none"></path></g><g transform="translate(330 50) rotate(0 0 20)"><path d="M-7.64 20.72 C-4.47 26.7, -2.31 32.76, -0.75 39.5 M-7.64 20.72 C-5.66 25.67, -3.71 31, -0.75 39.5" stroke="#1e1e1e" stroke-width="2" fill="none"></path></g><g transform="translate(330 50) rotate(0 0 20)"><path d="M6.04 20.69 C4.57 26.71, 2.08 32.77, -0.75 39.5 M6.04 20.69 C4.4 25.58, 2.74 30.92, -0.75 39.5" stroke="#1e1e1e" stroke-width="2" fill="none"></path></g></g><mask></mask><g stroke-linecap="round"><g transform="translate(330 150) rotate(0 0 30)"><path d="M0.29 0.56 C0.6 10.55, 1.25 49.23, 1.16 59.24 M-1.02 -0.19 C-0.7 10, 0.84 50.57, 0.82 60.38" stroke="#1e1e1e" stroke-width="2" fill="none"></path></g><g transform="translate(330 150) rotate(0 0 30)"><path d="M-8.23 37.07 C-5.25 44.6, -5.27 47.88, 0.82 60.38 M-8.23 37.07 C-5.33 46.2, -1.5 52.62, 0.82 60.38" stroke="#1e1e1e" stroke-width="2" fill="none"></path></g><g transform="translate(330 150) rotate(0 0 30)"><path d="M8.87 36.71 C7.72 44.37, 3.58 47.73, 0.82 60.38 M8.87 36.71 C5.73 46, 3.52 52.55, 0.82 60.38" stroke="#1e1e1e" stroke-width="2" fill="none"></path></g></g><mask></mask><g stroke-linecap="round"><g transform="translate(330 290) rotate(0 0 10)"><path d="M0.39 0.5 C0.44 3.83, -0.08 17.05, -0.17 20.35 M-0.08 0.29 C-0.06 3.42, -0.6 16.38, -0.68 19.56" stroke="#1e1e1e" stroke-width="2" fill="none"></path></g><g transform="translate(330 290) rotate(0 0 10)"><path d="M-3.78 10.05 C-2.65 11.84, -2.16 13.79, -0.68 19.56 M-3.78 10.05 C-2.6 13.24, -1.7 16.84, -0.68 19.56" stroke="#1e1e1e" stroke-width="2" fill="none"></path></g><g transform="translate(330 290) rotate(0 0 10)"><path d="M3.06 10.29 C2.78 12.05, 1.87 13.95, -0.68 19.56 M3.06 10.29 C1.82 13.42, 0.31 16.94, -0.68 19.56" stroke="#1e1e1e" stroke-width="2" fill="none"></path></g></g><mask></mask><g stroke-linecap="round"><g transform="translate(330 370) rotate(0 0 10)"><path d="M0.13 -0.12 C0.16 3.21, 0.46 16.98, 0.48 20.36 M-0.46 -0.66 C-0.5 2.48, 0.21 16, 0.3 19.57" stroke="#1e1e1e" stroke-width="2" fill="none"></path></g><g transform="translate(330 370) rotate(0 0 10)"><path d="M-3.49 10.32 C-2.2 14.09, -0.4 17.22, 0.3 19.57 M-3.49 10.32 C-2.51 13.11, -0.89 16.05, 0.3 19.57" stroke="#1e1e1e" stroke-width="2" fill="none"></path></g><g transform="translate(330 370) rotate(0 0 10)"><path d="M3.35 10.05 C2.17 13.92, 1.5 17.16, 0.3 19.57 M3.35 10.05 C2.12 12.92, 1.53 15.95, 0.3 19.57" stroke="#1e1e1e" stroke-width="2" fill="none"></path></g></g><mask></mask><g stroke-linecap="round"><g transform="translate(303.00037765698505 470.246782057609) rotate(0 -39.673566812662386 29.752517606316303)"><path d="M0.29 -0.8 C-12.78 9.06, -66.08 49.65, -79.24 59.75 M-1.02 1.4 C-14.16 10.82, -67.13 47.78, -80.14 57.75" stroke="#1e1e1e" stroke-width="2" fill="none"></path></g><g transform="translate(303.00037765698505 470.246782057609) rotate(0 -39.673566812662386 29.752517606316303)"><path d="M-66.16 37.02 C-70.62 42.03, -72.13 47.81, -80.14 57.75 M-66.16 37.02 C-69.79 42.69, -75.45 50.64, -80.14 57.75" stroke="#1e1e1e" stroke-width="2" fill="none"></path></g><g transform="translate(303.00037765698505 470.246782057609) rotate(0 -39.673566812662386 29.752517606316303)"><path d="M-56.11 50.85 C-62.96 52.68, -66.8 55.26, -80.14 57.75 M-56.11 50.85 C-62.93 52.01, -71.84 55.47, -80.14 57.75" stroke="#1e1e1e" stroke-width="2" fill="none"></path></g></g><mask></mask><g stroke-linecap="round"><g transform="translate(191.10905687096374 590.2481827297584) rotate(0 19.323428218725766 9.715448492345615)"><path d="M-0.25 0.01 C6.14 3.21, 31.9 16.42, 38.36 19.71 M0.63 -0.47 C7.19 2.81, 33.2 15.68, 39.45 18.88" stroke="#1e1e1e" stroke-width="2" fill="none"></path></g><g transform="translate(191.10905687096374 590.2481827297584) rotate(0 19.323428218725766 9.715448492345615)"><path d="M17.97 16.37 C24.67 16.68, 31.85 17.74, 39.45 18.88 M17.97 16.37 C25.53 16.98, 33.05 18.15, 39.45 18.88" stroke="#1e1e1e" stroke-width="2" fill="none"></path></g><g transform="translate(191.10905687096374 590.2481827297584) rotate(0 19.323428218725766 9.715448492345615)"><path d="M24.61 3.15 C29.31 7.56, 34.42 12.74, 39.45 18.88 M24.61 3.15 C29.86 8.34, 35.07 14.11, 39.45 18.88" stroke="#1e1e1e" stroke-width="2" fill="none"></path></g></g><mask></mask><g stroke-linecap="round"><g transform="translate(350 470) rotate(0 20 70)"><path d="M-0.22 -0.87 C6.27 22.51, 33.16 115.94, 39.8 139.36 M-1.79 1.28 C4.45 24.89, 32.01 117.31, 38.74 140.56" stroke="#1e1e1e" stroke-width="2" fill="none"></path></g><g transform="translate(350 470) rotate(0 20 70)"><path d="M23.92 120.43 C27.83 127.62, 33.74 134.76, 38.74 140.56 M23.92 120.43 C28.44 126, 32.02 131.04, 38.74 140.56" stroke="#1e1e1e" stroke-width="2" fill="none"></path></g><g transform="translate(350 470) rotate(0 20 70)"><path d="M40.32 115.61 C38.09 124.56, 37.89 133.5, 38.74 140.56 M40.32 115.61 C40.46 122.34, 39.61 128.69, 38.74 140.56" stroke="#1e1e1e" stroke-width="2" fill="none"></path></g></g><mask></mask><g stroke-linecap="round"><g transform="translate(430 650) rotate(0 110 0)"><path d="M-0.51 -0.99 C36.16 -0.98, 182.68 -1.15, 219.48 -1.03 M1.42 1.11 C37.93 1.32, 181.89 0.01, 218.26 -0.03" stroke="#1e1e1e" stroke-width="2" fill="none"></path></g><g transform="translate(430 650) rotate(0 110 0)"><path d="M194.81 8.65 C199.2 5.67, 205.09 4.77, 218.26 -0.03 M194.81 8.65 C200.97 6.71, 207.53 4.78, 218.26 -0.03" stroke="#1e1e1e" stroke-width="2" fill="none"></path></g><g transform="translate(430 650) rotate(0 110 0)"><path d="M194.72 -8.45 C198.98 -7.08, 204.9 -3.63, 218.26 -0.03 M194.72 -8.45 C200.83 -5.65, 207.41 -2.84, 218.26 -0.03" stroke="#1e1e1e" stroke-width="2" fill="none"></path></g></g><mask></mask><g stroke-linecap="round"><g transform="translate(650 30) rotate(0 -50 0)"><path d="M-0.46 -0.13 C-16.93 -0.27, -82.7 -0.82, -99.11 -0.95 M1.5 -1.24 C-15.03 -1.25, -82.81 -0.11, -99.6 0.09" stroke="#1e1e1e" stroke-width="2" fill="none"></path></g><g transform="translate(650 30) rotate(0 -50 0)"><path d="M-76.23 -8.8 C-82.92 -4.95, -90.74 -2.27, -99.6 0.09 M-76.23 -8.8 C-81.22 -6.95, -86.82 -4.96, -99.6 0.09" stroke="#1e1e1e" stroke-width="2" fill="none"></path></g><g transform="translate(650 30) rotate(0 -50 0)"><path d="M-75.98 8.3 C-82.72 7.42, -90.62 5.37, -99.6 0.09 M-75.98 8.3 C-81.1 6.28, -86.76 4.4, -99.6 0.09" stroke="#1e1e1e" stroke-width="2" fill="none"></path></g></g><mask></mask><g stroke-linecap="round"><g transform="translate(650 650) rotate(0 0 -310)"><path d="M-0.06 0.91 C-0.18 -102.24, -1.27 -516.52, -1.1 -619.9 M-1.55 0.35 C-1.28 -102.51, 0.66 -514.69, 1.04 -618.3" stroke="#1e1e1e" stroke-width="2" fill="none"></path></g><g transform="translate(650 650) rotate(0 0 -310)"><path d="M9.49 -594.77 C8.93 -602.94, 5.3 -605.81, 1.04 -618.3 M9.49 -594.77 C6.83 -603.34, 2.79 -612.03, 1.04 -618.3" stroke="#1e1e1e" stroke-width="2" fill="none"></path></g><g transform="translate(650 650) rotate(0 0 -310)"><path d="M-7.61 -594.85 C-3.58 -602.98, -2.6 -605.83, 1.04 -618.3 M-7.61 -594.85 C-4.19 -603.49, -2.14 -612.16, 1.04 -618.3" stroke="#1e1e1e" stroke-width="2" fill="none"></path></g></g><mask></mask></svg>